<svg aria-hidden="true" xmlns="http://www.w3.org/2000/svg" overflow="hidden"><defs><symbol id="heart"><path d="M26 9.312c0-4.391-2.969-5.313-5.469-5.313-2.328 0-4.953 2.516-5.766 3.484-.375.453-1.156.453-1.531 0-.812-.969-3.437-3.484-5.766-3.484-2.5 0-5.469.922-5.469 5.313 0 2.859 2.891 5.516 2.922 5.547l9.078 8.75 9.063-8.734C23.109 14.828 26 12.172 26 9.312zm2 0c0 3.75-3.437 6.891-3.578 7.031l-9.734 9.375c-.187.187-.438.281-.688.281s-.5-.094-.688-.281l-9.75-9.406c-.125-.109-3.563-3.25-3.563-7 0-4.578 2.797-7.313 7.469-7.313 2.734 0 5.297 2.156 6.531 3.375 1.234-1.219 3.797-3.375 6.531-3.375 4.672 0 7.469 2.734 7.469 7.313z"/></symbol><symbol id="icon-user-o" viewBox="0 0 30 28"><path d="M18.766 12.25c2.203.641 5.234 2.812 5.234 9.922C24 25.391 21.609 28 18.672 28H5.328C2.39 28 0 25.391 0 22.172c0-7.109 3.031-9.281 5.234-9.922A7.914 7.914 0 0 1 4 8c0-4.406 3.594-8 8-8s8 3.594 8 8a7.911 7.911 0 0 1-1.234 4.25zM12 2C8.687 2 6 4.688 6 8s2.688 6 6 6 6-2.688 6-6-2.688-6-6-6zm6.672 24C20.5 26 22 24.297 22 22.172c0-4.922-1.656-8-4.75-8.156C15.844 15.25 14.016 16 12 16s-3.844-.75-5.25-1.984C3.656 14.172 2 17.25 2 22.172 2 24.297 3.5 26 5.328 26h13.344z"/></symbol><symbol id="icon-shopping-bag" viewBox="0 0 24 24"><path d="M19 5H5l1.5-2h11zm2.794.392L18.8 1.4A1 1 0 0 0 18 1H6a1 1 0 0 0-.8.4L2.206 5.392A.978.978 0 0 0 2 6v14a2.997 2.997 0 0 0 3 3h14a2.997 2.997 0 0 0 3-3V6a.997.997 0 0 0-.189-.585L21.8 5.4zM4 7h16v13c0 .276-.111.525-.293.707S19.276 21 19 21H5c-.276 0-.525-.111-.707-.293S4 20.276 4 20zm11 3c0 .829-.335 1.577-.879 2.121S12.829 13 12 13s-1.577-.335-2.121-.879S9 10.829 9 10a1 1 0 0 0-2 0c0 1.38.561 2.632 1.464 3.536S10.62 15 12 15s2.632-.561 3.536-1.464S17 11.38 17 10a1 1 0 0 0-2 0z"/></symbol><symbol id="icon-search" viewBox="0 0 24 24"><path d="M16.041 15.856a.995.995 0 0 0-.186.186A6.97 6.97 0 0 1 11 18c-1.933 0-3.682-.782-4.95-2.05S4 12.933 4 11s.782-3.682 2.05-4.95S9.067 4 11 4s3.682.782 4.95 2.05S18 9.067 18 11a6.971 6.971 0 0 1-1.959 4.856zm5.666 4.437-3.675-3.675A8.967 8.967 0 0 0 20 11c0-2.485-1.008-4.736-2.636-6.364S13.485 2 11 2 6.264 3.008 4.636 4.636 2 8.515 2 11s1.008 4.736 2.636 6.364S8.515 20 11 20a8.967 8.967 0 0 0 5.618-1.968l3.675 3.675a.999.999 0 1 0 1.414-1.414z"/></symbol><symbol id="icon-instagram" viewBox="0 0 32 32"><path d="M16 2.881c4.275 0 4.781.019 6.462.094 1.563.069 2.406.331 2.969.55a4.952 4.952 0 0 1 1.837 1.194 5.015 5.015 0 0 1 1.2 1.838c.219.563.481 1.412.55 2.969.075 1.688.094 2.194.094 6.463s-.019 4.781-.094 6.463c-.069 1.563-.331 2.406-.55 2.969a4.94 4.94 0 0 1-1.194 1.837 5.02 5.02 0 0 1-1.837 1.2c-.563.219-1.413.481-2.969.55-1.688.075-2.194.094-6.463.094s-4.781-.019-6.463-.094c-1.563-.069-2.406-.331-2.969-.55a4.952 4.952 0 0 1-1.838-1.194 5.02 5.02 0 0 1-1.2-1.837c-.219-.563-.481-1.413-.55-2.969-.075-1.688-.094-2.194-.094-6.463s.019-4.781.094-6.463c.069-1.563.331-2.406.55-2.969a4.964 4.964 0 0 1 1.194-1.838 5.015 5.015 0 0 1 1.838-1.2c.563-.219 1.412-.481 2.969-.55 1.681-.075 2.188-.094 6.463-.094zM16 0c-4.344 0-4.887.019-6.594.094-1.7.075-2.869.35-3.881.744-1.056.412-1.95.956-2.837 1.85a7.833 7.833 0 0 0-1.85 2.831C.444 6.538.169 7.7.094 9.4.019 11.113 0 11.656 0 16s.019 4.887.094 6.594c.075 1.7.35 2.869.744 3.881.413 1.056.956 1.95 1.85 2.837a7.82 7.82 0 0 0 2.831 1.844c1.019.394 2.181.669 3.881.744 1.706.075 2.25.094 6.594.094s4.888-.019 6.594-.094c1.7-.075 2.869-.35 3.881-.744 1.05-.406 1.944-.956 2.831-1.844s1.438-1.781 1.844-2.831c.394-1.019.669-2.181.744-3.881.075-1.706.094-2.25.094-6.594s-.019-4.887-.094-6.594c-.075-1.7-.35-2.869-.744-3.881a7.506 7.506 0 0 0-1.831-2.844A7.82 7.82 0 0 0 26.482.843C25.463.449 24.301.174 22.601.099c-1.712-.081-2.256-.1-6.6-.1z"/><path d="M16 7.781c-4.537 0-8.219 3.681-8.219 8.219s3.681 8.219 8.219 8.219 8.219-3.681 8.219-8.219A8.221 8.221 0 0 0 16 7.781zm0 13.55a5.331 5.331 0 1 1 0-10.663 5.331 5.331 0 0 1 0 10.663zM26.462 7.456a1.919 1.919 0 1 1-3.838 0 1.919 1.919 0 0 1 3.838 0z"/></symbol><symbol id="icon-facebook" viewBox="0 0 24 24"><path d="M21.984 12q0-2.063-.773-3.867t-2.156-3.188-3.188-2.156T12 2.016t-3.867.773-3.188 2.156-2.156 3.188T2.016 12q0 1.828.586 3.445t1.688 2.93 2.555 2.203 3.141 1.219V15H8.017v-3h1.969V9.516q0-.984.492-1.781t1.266-1.266T13.502 6h2.484v3h-1.969q-.422 0-.727.305t-.305.68v2.016h3v3h-3v6.938q1.922-.188 3.563-1.031t2.859-2.18 1.898-3.047.68-3.68z"/></symbol><symbol id="icon-twitter" viewBox="0 0 26 28"><path d="M25.312 6.375a10.85 10.85 0 0 1-2.531 2.609c.016.219.016.438.016.656 0 6.672-5.078 14.359-14.359 14.359-2.859 0-5.516-.828-7.75-2.266.406.047.797.063 1.219.063 2.359 0 4.531-.797 6.266-2.156a5.056 5.056 0 0 1-4.719-3.5c.313.047.625.078.953.078.453 0 .906-.063 1.328-.172a5.048 5.048 0 0 1-4.047-4.953v-.063a5.093 5.093 0 0 0 2.281.641 5.044 5.044 0 0 1-2.25-4.203c0-.938.25-1.797.688-2.547a14.344 14.344 0 0 0 10.406 5.281 5.708 5.708 0 0 1-.125-1.156 5.045 5.045 0 0 1 5.047-5.047 5.03 5.03 0 0 1 3.687 1.594 9.943 9.943 0 0 0 3.203-1.219 5.032 5.032 0 0 1-2.219 2.781c1.016-.109 2-.391 2.906-.781z"/></symbol><symbol id="icon-linkedin" viewBox="0 0 24 28"><path d="M5.453 9.766V25.25H.297V9.766h5.156zm.328-4.782c.016 1.484-1.109 2.672-2.906 2.672h-.031C1.11 7.656 0 6.468 0 4.984c0-1.516 1.156-2.672 2.906-2.672 1.766 0 2.859 1.156 2.875 2.672zM24 16.375v8.875h-5.141v-8.281c0-2.078-.75-3.5-2.609-3.5-1.422 0-2.266.953-2.641 1.875-.125.344-.172.797-.172 1.266v8.641H8.296c.063-14.031 0-15.484 0-15.484h5.141v2.25h-.031c.672-1.062 1.891-2.609 4.672-2.609 3.391 0 5.922 2.219 5.922 6.969z"/></symbol><symbol id="icon-paypal-color-icon" viewBox="0 0 54 32"><path fill="#003087" style="fill:var(--color1,#003087)" d="M31.837 8.818c-.783-.892-2.2-1.275-4.01-1.275h-5.256a.749.749 0 0 0-.743.635l-2.19 13.88a.451.451 0 0 0 .446.522h3.247l.816-5.17-.026.162a.746.746 0 0 1 .74-.634l1.542.001c3.03 0 5.401-1.228 6.095-4.79a6.65 6.65 0 0 0 .053-.308c.205-1.315 0-2.213-.714-3.022z"/><path fill="#009cde" style="fill:var(--color2,#009cde)" d="M33.472 12.64c-.79 3.505-3.228 5.355-7.07 5.355h-1.278l-.889 5.643-1.071.001-.056.363a.396.396 0 0 0 .39.456h2.736a.66.66 0 0 0 .651-.555l.026-.138.516-3.268.033-.178a.657.657 0 0 1 .651-.555h.406c2.649 0 4.724-1.077 5.332-4.189.228-1.183.142-2.187-.376-2.933h-.001z"/><path fill="gray" style="fill:var(--color3,gray)" d="M5.044 0h43.512c1.388 0 2.649.567 3.563 1.481S53.6 3.656 53.6 5.044v21.913c0 1.388-.567 2.649-1.481 3.563s-2.175 1.481-3.563 1.481H5.044c-1.388 0-2.649-.567-3.563-1.481S0 28.345 0 26.957V5.044c0-1.388.567-2.649 1.481-3.563S3.656 0 5.044 0zm43.512 1.738H5.044c-.908 0-1.734.372-2.334.972s-.972 1.426-.972 2.334v21.913c0 .908.372 1.734.972 2.334s1.426.972 2.334.972h43.512c.908 0 1.734-.372 2.334-.972s.972-1.426.972-2.333V5.045c0-.908-.372-1.734-.972-2.334s-1.426-.972-2.334-.972z"/></symbol><symbol id="icon-american-express-icon" viewBox="0 0 54 32"><path fill="#006ece" style="fill:var(--color4,#006ece)" d="M16.28 5.441h21.04v21.118H16.28z"/><path fill="#fff" style="fill:var(--color5,#fff)" d="m18.183 14.573-.404-.984-.403.984h.807zm19.13 3.376h-1.079c-.107 0-.18.005-.238.045-.062.04-.087.101-.087.178 0 .093.053.157.13.184a.706.706 0 0 0 .228.029l.319.008c.323.009.539.064.672.198.022.019.038.042.055.063v-.705zm0 1.63c-.146.212-.425.317-.803.317h-1.142v-.531h1.137c.112 0 .191-.015.239-.062a.215.215 0 0 0 .071-.16.211.211 0 0 0-.072-.164c-.045-.039-.106-.055-.208-.056-.555-.018-1.247.017-1.247-.765 0-.358.228-.736.846-.736h1.178v-.492h-1.095c-.331 0-.57.079-.74.202v-.202H33.86c-.257 0-.561.065-.706.202l.001-.202h-2.89v.202c-.23-.165-.617-.202-.797-.202h-1.904v.202c-.183-.176-.586-.202-.833-.202h-2.133l-.488.53-.456-.53h-3.187v3.451h3.127l.503-.536.474.536 1.925.001v-.812h.191c.254.004.557-.006.822-.12v.931h1.589v-.9h.077c.098 0 .107.006.107.102v.799h4.828c.305 0 .626-.079.803-.221v.221h1.532c.319 0 .629-.045.867-.159v-.644zm-2.359-.988c.117.12.177.271.177.524 0 .533-.333.781-.928.781h-1.152v-.531h1.147c.113 0 .191-.015.241-.062a.214.214 0 0 0 .07-.16.209.209 0 0 0-.073-.164c-.045-.039-.106-.055-.209-.056-.553-.018-1.245.017-1.245-.765 0-.358.225-.736.844-.736h1.185v.526h-1.083c-.109 0-.178.005-.238.045-.064.04-.088.101-.088.178a.19.19 0 0 0 .129.184.713.713 0 0 0 .229.029l.319.008c.321.009.54.064.674.198zm-5.333-.151c-.078.046-.176.05-.291.05h-.719v-.555h.728c.105 0 .211.002.281.043.077.041.122.117.122.223a.27.27 0 0 1-.122.238zm.357.307a.625.625 0 0 1 .289.208c.083.121.097.233.098.452v.49h-.593v-.31c0-.149.014-.368-.096-.483-.086-.09-.217-.111-.432-.111h-.633v.904h-.593v-2.473h1.363c.3 0 .518.013.712.118.186.111.302.268.302.549a.693.693 0 0 1-.419.657zm.747-1.324h1.973v.512h-1.384v.448h1.35v.505h-1.35v.492l1.384.002v.514h-1.973v-2.473zm-3.986 1.141h-.765v-.628h.771c.214 0 .361.086.361.303 0 .214-.141.325-.367.325zm-1.354 1.108-.906-1.008.906-.975v1.983zm-2.342-.292H21.59v-.492h1.297v-.505H21.59v-.448h1.481l.646.72-.674.725zm4.697-1.141c0 .685-.511.828-1.029.828h-.737v.829h-1.147l-.728-.818-.756.818h-2.34v-2.473h2.377l.727.81.752-.81h1.888c.469 0 .995.13.995.816zm-.648-4.056c-.081.046-.177.05-.292.05h-.719v-.549h.728c.104 0 .212.004.282.043.076.038.123.114.123.218 0 .109-.046.195-.122.238zm5.122.39-.41-.984-.405.984h.815zm-9.546 1.066h-.605l-.004-1.933-.856 1.933h-.518l-.861-1.938v1.938h-1.202l-.226-.551h-1.231l-.228.551h-.642l1.056-2.472h.879l1.005 2.342v-2.342h.966l.772 1.678.711-1.678h.984v2.472zm2.414 0h-1.974v-2.472h1.974v.517H23.7v.444h1.348v.508l-1.348-.002v.494h1.382v.511zm2.784-1.804a.698.698 0 0 1-.416.658.67.67 0 0 1 .291.209c.083.12.1.233.1.451v.486h-.596l-.002-.311c0-.146.015-.361-.095-.479-.086-.088-.216-.106-.43-.106h-.636v.897h-.59v-2.472h1.36c.3 0 .524.01.715.12.188.11.299.271.299.548zm.946 1.804h-.603v-2.472h.603v2.472zm6.994 0h-.837l-1.12-1.853.001 1.853h-1.203l-.23-.551h-1.23l-.221.551h-.692c-.288 0-.652-.064-.856-.272-.21-.212-.316-.494-.316-.945 0-.367.065-.701.319-.966.192-.198.49-.289.897-.289h.571v.53h-.558c-.216 0-.339.033-.457.148-.099.104-.169.301-.169.561 0 .265.051.454.164.58.089.097.255.127.411.127h.266l.832-1.945h.886l1 2.338v-2.338h.902l1.039 1.722v-1.722h.604v2.472zm-19.519.488h1.01l.228-.551h.51l.226.551h1.987v-.421l.178.422h1.03l.177-.427v.425h4.938l-.002-.902h.096c.067.001.087.009.087.119v.783h2.552v-.21c.206.111.528.21.947.21h1.075l.23-.551h.51l.225.551h2.069v-.523l.314.523h1.658v-3.449H34.69v.408l-.229-.408h-1.685v.408l-.211-.408H30.29c-.381 0-.717.053-.987.201v-.201h-1.568v.201c-.174-.153-.408-.201-.668-.201H21.33l-.387.891-.393-.891h-1.807v.408l-.2-.408h-1.54l-.716 1.638v1.811z"/><path fill="gray" style="fill:var(--color3,gray)" d="M5.044 0h43.512c1.388 0 2.649.567 3.563 1.481S53.6 3.656 53.6 5.044v21.913c0 1.388-.567 2.649-1.481 3.563s-2.175 1.481-3.563 1.481H5.044c-1.388 0-2.649-.567-3.563-1.481S0 28.345 0 26.957V5.044c0-1.388.567-2.649 1.481-3.563S3.656 0 5.044 0zm43.512 1.738H5.044c-.908 0-1.734.372-2.334.972s-.972 1.426-.972 2.334v21.913c0 .908.372 1.734.972 2.334s1.426.972 2.334.972h43.512c.908 0 1.734-.372 2.334-.972s.972-1.426.972-2.333V5.045c0-.908-.372-1.734-.972-2.334s-1.426-.972-2.334-.972z"/></symbol><symbol id="icon-master-card-icon" viewBox="0 0 54 32"><path fill="#141515" style="fill:var(--color6,#141515)" d="M18.533 23.487c-.069-.07-.152-.124-.247-.162s-.2-.058-.313-.058c-.06 0-.122.005-.187.016s-.128.029-.19.055a.689.689 0 0 0-.323.284c-.067-.11-.157-.197-.271-.26s-.245-.094-.392-.094c-.049 0-.1.005-.153.013a.653.653 0 0 0-.435.28v-.242h-.416v1.982h.42v-1.098c0-.084.013-.159.04-.224s.063-.12.107-.164c.045-.044.097-.078.157-.1s.124-.034.192-.034c.142 0 .251.045.329.135s.117.218.117.385v1.103h.421v-1.098c0-.084.013-.159.04-.224s.062-.12.107-.164c.045-.044.097-.078.157-.1s.124-.034.192-.034c.141 0 .251.045.329.135s.117.218.117.385v1.103h.421v-1.245c0-.116-.019-.222-.057-.319s-.092-.18-.161-.249zm19.741 1.679v.033h.038c.008 0 .014-.001.018-.004s.006-.007.006-.013-.002-.01-.006-.013c-.004-.003-.01-.004-.018-.004h-.038zm.039-.044c.025 0 .043.005.056.016s.019.025.019.044c0 .014-.005.026-.014.036s-.023.016-.04.018l.056.064h-.06l-.05-.063h-.006v.063h-.05v-.179h.089zm-.012.236a.149.149 0 0 0 .134-.089.156.156 0 0 0 0-.114.149.149 0 0 0-.077-.077.158.158 0 0 0-.115 0 .148.148 0 0 0-.047.031c-.013.013-.024.028-.031.046a.156.156 0 0 0 0 .114.144.144 0 0 0 .078.077.14.14 0 0 0 .058.012zm0-.348c.029 0 .056.005.081.016s.047.025.066.043c.019.018.034.04.044.064a.206.206 0 0 1 0 .157.203.203 0 0 1-.11.108.199.199 0 0 1-.081.016.203.203 0 0 1-.148-.06.203.203 0 0 1-.06-.142.192.192 0 0 1 .06-.143.21.21 0 0 1 .148-.059zm-8.338-1.159c.055-.056.121-.099.197-.13s.158-.047.246-.047c.097 0 .187.015.271.047.081.03.151.072.21.125l.208-.346a1.117 1.117 0 0 0-.689-.233c-.153 0-.295.027-.425.08s-.243.126-.337.219c-.094.093-.169.203-.222.33s-.081.265-.081.414a1.047 1.047 0 0 0 .303.744c.094.093.207.166.337.219s.272.08.425.08a1.117 1.117 0 0 0 .689-.233l-.208-.346a.647.647 0 0 1-.21.125.771.771 0 0 1-.271.047.627.627 0 0 1-.443-.177c-.055-.056-.099-.123-.13-.201s-.047-.164-.047-.258.016-.18.047-.257.075-.145.13-.201zm6.978.711c-.029.077-.07.144-.122.201s-.115.101-.188.133a.604.604 0 0 1-.244.049.56.56 0 0 1-.556-.39.738.738 0 0 1 0-.492.573.573 0 0 1 .556-.39.588.588 0 0 1 .432.182c.052.057.093.123.122.201s.043.161.043.252-.014.175-.043.252zm.017-2.049v1.046c-.069-.088-.155-.159-.257-.212s-.224-.08-.366-.08a.969.969 0 0 0-.915.624c-.051.128-.077.267-.077.419s.025.291.077.419a.972.972 0 0 0 .915.624c.142 0 .264-.026.366-.079s.188-.123.257-.211v.238h.432v-2.787h-.432zm-2.02.754c-.122 0-.231.022-.329.066s-.18.15-.246.246v-.26h-.393v1.982h.397v-1.09c0-.084.012-.159.035-.225s.056-.122.097-.168.091-.08.149-.104a.51.51 0 0 1 .19-.035.812.812 0 0 1 .257.042l.128-.414a.968.968 0 0 0-.106-.027 1.082 1.082 0 0 0-.179-.013zm-6.01 0c-.121 0-.231.022-.329.066s-.18.15-.246.246v-.26h-.392v1.982h.397v-1.09c0-.084.012-.159.035-.225s.056-.122.097-.168.091-.08.149-.104a.51.51 0 0 1 .19-.035.812.812 0 0 1 .257.042l.128-.414a.968.968 0 0 0-.106-.027 1.082 1.082 0 0 0-.179-.013zm-3.904 1.638a.586.586 0 0 1-.206.039c-.044 0-.085-.007-.123-.021s-.071-.035-.099-.065c-.028-.03-.051-.068-.067-.115s-.025-.104-.025-.17v-.863h.695v-.393h-.695v-.6h-.434v.6h-.395v.393h.395v.871c0 .264.062.457.187.582s.3.187.525.187a.922.922 0 0 0 .338-.058c.066-.026.127-.055.185-.087l-.148-.362a1.324 1.324 0 0 1-.132.06zm7.922-.343c-.029.077-.07.144-.122.201s-.115.101-.188.133a.6.6 0 0 1-.244.049.56.56 0 0 1-.556-.39.738.738 0 0 1 0-.492c.027-.077.067-.144.118-.202s.113-.103.187-.137a.596.596 0 0 1 .251-.051.584.584 0 0 1 .432.182.599.599 0 0 1 .122.201c.029.077.043.161.043.252s-.014.175-.043.252zm.017-1.003c-.069-.088-.154-.159-.256-.212s-.224-.08-.366-.08a.969.969 0 0 0-.914.624c-.051.128-.077.267-.077.419s.025.291.077.419a.988.988 0 0 0 .525.546c.12.052.25.078.389.078.142 0 .264-.026.366-.079s.188-.123.256-.211v.238h.432v-1.982h-.432v.24zm-6.954.581c.011-.072.03-.138.058-.197s.063-.112.106-.155c.044-.043.095-.077.155-.1s.129-.035.206-.035c.138 0 .25.043.337.128s.142.206.165.36h-1.028zm1.209-.585c-.082-.092-.181-.163-.296-.213s-.242-.076-.379-.076c-.146 0-.28.025-.401.076s-.224.121-.311.213-.154.202-.203.33-.072.27-.072.424c0 .157.025.3.074.428s.119.238.209.329.197.161.321.211c.124.05.261.075.41.075.15 0 .293-.021.429-.062s.264-.114.386-.217l-.215-.308a.961.961 0 0 1-.573.209c-.07 0-.138-.009-.203-.029a.544.544 0 0 1-.311-.246.65.65 0 0 1-.077-.23h1.465c.003-.025.005-.051.006-.079l.002-.083c0-.154-.023-.295-.069-.423s-.11-.237-.192-.329zm-4.048.751c-.122-.094-.29-.157-.507-.189l-.205-.031c-.046-.007-.088-.015-.128-.024s-.074-.021-.103-.036c-.029-.015-.052-.035-.069-.058s-.026-.052-.026-.087c0-.07.033-.127.098-.171s.158-.065.276-.065c.062 0 .123.005.183.017s.117.025.171.041a1.3 1.3 0 0 1 .259.112l.186-.337c-.103-.066-.224-.118-.362-.154s-.285-.055-.441-.055c-.127 0-.241.015-.341.045s-.186.072-.257.126a.555.555 0 0 0-.221.465c0 .16.057.289.17.388s.281.163.502.193l.207.027c.119.016.206.043.261.08s.083.083.083.14c0 .074-.038.133-.114.177s-.188.065-.337.065a1.199 1.199 0 0 1-.394-.061.904.904 0 0 1-.26-.142l-.201.325c.072.054.147.097.225.13a1.466 1.466 0 0 0 .447.114c.067.006.127.009.178.009.142 0 .269-.016.382-.048s.207-.076.284-.134a.562.562 0 0 0 .237-.467.47.47 0 0 0-.182-.396zm-2.436.256c-.029.077-.07.144-.122.201s-.115.101-.188.133a.604.604 0 0 1-.244.049.56.56 0 0 1-.556-.39.738.738 0 0 1 0-.492.56.56 0 0 1 .556-.39.584.584 0 0 1 .432.182.599.599 0 0 1 .122.201c.029.077.043.161.043.252s-.014.175-.043.252zm.017-1.003c-.069-.088-.155-.159-.257-.212s-.224-.08-.366-.08a.969.969 0 0 0-.914.624c-.051.128-.077.267-.077.419s.026.291.077.419a.988.988 0 0 0 .525.546c.12.052.25.078.389.078.142 0 .264-.026.366-.079s.188-.123.257-.211v.238h.432v-1.982h-.432v.24z"/><path fill="#de2c1d" style="fill:var(--color7,#de2c1d)" d="M23.648 14.055a7.453 7.453 0 0 1 2.836-5.856 7.469 7.469 0 1 0 0 11.712 7.453 7.453 0 0 1-2.836-5.856z"/><path fill="#ed6100" style="fill:var(--color8,#ed6100)" d="M23.648 14.055a7.453 7.453 0 0 0 2.836 5.856c1.727-1.368 2.836-3.482 2.836-5.856s-1.109-4.488-2.836-5.856a7.453 7.453 0 0 0-2.836 5.856z"/><path fill="#f79f06" style="fill:var(--color9,#f79f06)" d="M31.117 6.585a7.435 7.435 0 0 0-4.633 1.613c1.727 1.368 2.836 3.482 2.836 5.856s-1.109 4.488-2.836 5.856a7.469 7.469 0 1 0 4.633-13.325zm7.994 11.781v-.317l-.103.274h-.114l-.103-.273v.316h-.107v-.457h.153l.114.293.113-.293h.154v.457h-.107zm-.768 0v-.359h-.145v-.099h.397v.099h-.145v.359h-.107z"/><path fill="gray" style="fill:var(--color3,gray)" d="M5.044 0h43.512c1.388 0 2.649.567 3.563 1.481S53.6 3.656 53.6 5.044v21.913c0 1.388-.567 2.649-1.481 3.563s-2.175 1.481-3.563 1.481H5.044c-1.388 0-2.649-.567-3.563-1.481S0 28.345 0 26.957V5.044c0-1.388.567-2.649 1.481-3.563S3.656 0 5.044 0zm43.512 1.738H5.044c-.908 0-1.734.372-2.334.972s-.972 1.426-.972 2.334v21.913c0 .908.372 1.734.972 2.334s1.426.972 2.334.972h43.512c.908 0 1.734-.372 2.334-.972s.972-1.426.972-2.333V5.045c0-.908-.372-1.734-.972-2.334s-1.426-.972-2.334-.972z"/></symbol><symbol id="icon-visa-icon" viewBox="0 0 54 32"><path fill="gray" style="fill:var(--color3,gray)" d="M5.044 0h43.512c1.388 0 2.649.567 3.563 1.481S53.6 3.656 53.6 5.044v21.913c0 1.388-.567 2.649-1.481 3.563s-2.175 1.481-3.563 1.481H5.044c-1.388 0-2.649-.567-3.563-1.481S0 28.345 0 26.957V5.044c0-1.388.567-2.649 1.481-3.563S3.656 0 5.044 0zm43.512 1.738H5.044c-.908 0-1.734.372-2.334.972s-.972 1.426-.972 2.334v21.913c0 .908.372 1.734.972 2.334s1.426.972 2.334.972h43.512c.908 0 1.734-.372 2.334-.972s.972-1.426.972-2.333V5.045c0-.908-.372-1.734-.972-2.334s-1.426-.972-2.334-.972z"/><path fill="#191e70" style="fill:var(--color10,#191e70)" d="m21.97 20.868 1.655-9.713h2.647l-1.656 9.713zm12.248-9.473a6.833 6.833 0 0 0-2.373-.408c-2.616 0-4.459 1.317-4.474 3.205-.015 1.395 1.316 2.174 2.32 2.639 1.03.476 1.377.78 1.372 1.205-.007.651-.823.948-1.584.948-1.059 0-1.622-.147-2.492-.51l-.341-.155-.372 2.174c.618.271 1.762.506 2.949.518 2.783 0 4.589-1.302 4.61-3.318.01-1.105-.695-1.946-2.223-2.639-.925-.45-1.492-.749-1.486-1.204 0-.404.48-.835 1.516-.835a4.865 4.865 0 0 1 1.981.372l.237.112.359-2.105zm6.788-.23H38.96c-.634 0-1.108.173-1.386.806l-3.932 8.9h2.78s.455-1.197.557-1.459l3.39.004c.079.34.322 1.455.322 1.455h2.457l-2.143-9.706zm-3.264 6.26c.219-.56 1.055-2.715 1.055-2.715-.015.026.217-.562.351-.927l.179.837.613 2.805h-2.198zm-17.993-6.262-2.592 6.623-.276-1.346c-.482-1.552-1.986-3.233-3.667-4.074l2.37 8.494 2.801-.003 4.168-9.694h-2.804z"/><path fill="#f7b600" style="fill:var(--color11,#f7b600)" d="M14.753 11.157h-4.269l-.034.202c3.321.804 5.519 2.747 6.431 5.081l-.928-4.463c-.16-.615-.625-.799-1.2-.82z"/></symbol><symbol id="icon-logo-yersi"><path d="M12.953 25.575c.019-.543.116-1.08.29-1.594a7.323 7.323 0 0 1 .7-1.48 8.62 8.62 0 0 1 1.041-1.361 7.997 7.997 0 0 1 1.301-1.131c1.016-.695 2.046-1.05 3.092-1.064 1.225-.016 2.047.422 2.466 1.314.175.331.251.707.218 1.081-.177 1.642-1.764 2.375-2.181 2.61-.434.243-.89.444-1.361.6-1.013.333-2.167.312-3.328.34a5.09 5.09 0 0 0-.215 1.115c-.071.693-.08 1.525.535 1.94.617.413 1.54.554 3.2-.528.467-.349 1.274-1.277 1.663-1.259a.359.359 0 0 1 .34.2.79.79 0 0 1 .151.463c0 .338-.22.522-.433.772-.891.809-2.107 1.343-3.89 1.368-1.052.015-1.902-.255-2.548-.808-.723-.623-1.07-1.482-1.041-2.578Zm6.258-6.019c-.751.01-1.883 1.055-2.566 1.982-.576.796-1.02 1.924-1.364 3.012 1.385.023 2.45.162 3.832-.921.796-.698.877-1.856.867-2.486.042-.696-.274-1.587-.769-1.587Zm3.504 9.028c-.08-.116 1.405-3.486 1.736-4.462.455-1.337.614-2.486.611-3.12a.817.817 0 0 0-.357-.66l-.396-.06a.286.286 0 0 1-.097-.235.463.463 0 0 1 .126-.323c.096-.108.21-.198.339-.265.277-.145.584-.222.896-.225.244-.01.488.021.721.093.162.056.312.143.443.255a.993.993 0 0 1 .393.724c.005.26-.025.521-.087.774a8.236 8.236 0 0 1-.225.77c-.086.25-.174.484-.261.719-.066.163-.122.33-.169.5-.054.224-.51 1.208-.51 1.208s1.015-1.341 1.274-1.755c.26-.414 1.737-2.471 2.361-2.827.319-.19 1.274-.737 1.763-.149.2.199.318.466.333.749a2.3 2.3 0 0 1-.058.682c-.05.18-.126.354-.226.512-.221.359-.492.538-.809.54a.398.398 0 0 1-.245-.086l-.223-.18a1.025 1.025 0 0 0-.646-.274c-.769-.22-1.41.43-1.965 1.141-.554.711-1.433 1.455-2.397 4.708l-.338 1.118c-.282.615-1.905.246-1.987.128Zm8.406-1.564a1.03 1.03 0 0 1 .139-.54c.09-.162.21-.304.353-.42.262-.233.594-.366.941-.377.287 0 .432.121.435.377 0 .646.353 1.54.852 1.789.18.09.703.394 1.198.297.496-.097 1.1-.373 1.245-.911.23-.85-1.071-1.975-1.273-2.203l-.621-.739c-.873-.986-1.471-1.624-1.482-2.465-.01-.698.322-1.334.996-1.91.764-.646 1.752-.98 2.963-1.002 1.059-.015 1.622.162 2.229.614.492.36.788 1.657-.025 2.38-.414.364-.626.426-1.013.363a.62.62 0 0 1-.401-.225.407.407 0 0 1-.06-.413c.057-.162.692-1.15.303-1.654-.388-.504-.566-.62-1.084-.692a2.016 2.016 0 0 0-1.463.429c-1.01 1.154-.138 2.15 0 2.385.157.234.334.454.529.658.192.234.4.47.627.711.224.238.432.492.622.758.459.623.691 1.172.698 1.649a2.01 2.01 0 0 1-.328 1.2 3.17 3.17 0 0 1-.88.84 4.734 4.734 0 0 1-2.612.791c-.925.012-1.658-.172-2.198-.55-.457-.318-.683-.698-.69-1.14Z"/><path fill="#fff" d="M41.696 28.865c-.288-1.892 1.616-8.58 1.91-9.723l-1.91 9.723Z"/><path d="M41.673 28.87a.965.965 0 0 1-.554-.268.991.991 0 0 1-.285-.553c-.159-.485-.027-1.015.032-1.504.144-.946.35-1.88.617-2.798.227-.808.49-1.605.753-2.398.25-.69.498-1.41.934-2.005a.815.815 0 0 1 .457-.197.797.797 0 0 1 .275.723c-.031 1.454-.363 2.888-.477 4.336a40.157 40.157 0 0 1-.33 2.699c-.022.287-.08.57-.17.842a2.059 2.059 0 0 1-.328.519c-.237.309-.425.357-.882.596h-.045l.003.008ZM8.357 22.645c-1.976.666-3.9 1.647-5.354 3.184a5.196 5.196 0 0 0-1.411 2.2c-.478 1.413.52 1.813 1.751 1.635 1.91-.296 3.455-1.668 4.552-3.21.887-1.253 1.533-2.617 2.189-4.005 1.318-2.767 2.547-5.571 3.595-8.458l.796-2.16c.221-.535.347-1.114.68-1.596a.816.816 0 0 1 .606-.39 19.317 19.317 0 0 1-1.06 2.988c-1.258 2.946-2.907 6.007-6.252 6.885-.81.205-1.77.221-2.547-.23-1.42-.84-1.457-2.775-1.072-4.194.335-1.343 1.003-2.565 1.724-3.717l.42-.66c.171-.274.318-.556.585-.743.103-.084.217-.152.34-.204l.13-.035a.232.232 0 0 0 .159-.094.17.17 0 0 1 .124.021.606.606 0 0 1 .285.519c.032.467-.194.834-.388 1.225-.244.485-.49.94-.736 1.396-.374.716-.796 1.439-1.1 2.184-.55 1.293-1.274 3.463.532 4.03 1.468.39 3.025-.386 4.161-1.315a9.394 9.394 0 0 0 1.98-2.377 29.444 29.444 0 0 0 2.45-4.933c.097-.244.18-.494.246-.748l.027.008c.092.075.178.16.255.25.283.3.248.773.134 1.132-.354 1.108-.637 2.233-.987 3.35a55.811 55.811 0 0 1-2.548 6.562c-.646 1.335-1.299 2.652-2.14 3.879a14.471 14.471 0 0 1-3.696 3.66 7.089 7.089 0 0 1-3.106 1.238 5.17 5.17 0 0 1-2.248-.097 2.044 2.044 0 0 1-.796-.381c-1.05-.832-.637-2.434.126-3.232a8.612 8.612 0 0 1 1.006-.917l.138-.11a.837.837 0 0 1 .137-.095 15.435 15.435 0 0 1 2.957-1.455c1.1-.371 2.278-.646 3.36-.987l-.004-.003Z"/><path fill="#B52323" d="M57.763 9.458c-.28-1.264-1.425-1.678-2.657-1.689-.785-.394-1.844-.09-2.646.13-.919.252-2.923 1.654-2.982 1.798-.634.294-1.236.654-1.798 1.073a3.058 3.058 0 0 0-.851.996 29.418 29.418 0 0 0-.403-.35c.043-.085.087-.17.127-.258.446-.945.459-1.881.43-2.909-.025-.955-.017-1.875-.384-2.775a11.153 11.153 0 0 0-1.372-2.466 4.822 4.822 0 0 0-2.281-1.68 3.177 3.177 0 0 0-.777-.656A2.79 2.79 0 0 0 39.8.432a.98.98 0 0 0-.415.28 2.854 2.854 0 0 0-1.424.339c-.7.41-1.24 1.226-1.592 1.952a4.275 4.275 0 0 0-.34 2.424c-.28.677.075 1.358.444 1.985.111-.02 1.146 1.574 2.635 2.575 1.176.733 3.184 1.496 3.184 1.496l.151.19s.395-.124.014-.172c-.886-.112-1.956-.267-2.78-.228-.088.02-.176.044-.262.071-.672-.022-1.355-.121-1.957.225-.665.383-1.273 1.207-1.603 1.894-.364.77-.223 1.548.072 2.316.307.795.91 1.154 1.751 1.131a6.78 6.78 0 0 0 1.471-.224c.554.106 1.183-.14 1.734-.46a.751.751 0 0 0 .307-.043c.973-.359 2.2-1.159 2.89-2.167.275-.168.538-.357.786-.564.177-.154.373.323.532.143.263.206.637.877.713 1.146.287 1.088 1.232 2.118 2.094 2.85.303.156.616.292.936.407.436.183.922.203 1.37.055a1.37 1.37 0 0 0 .621-.485 1.014 1.014 0 0 0 .714-.67c.17-.416.22-.872.143-1.314-.29-.1-.637-.71-1.094-1.085a3.643 3.643 0 0 0-1.114-.61l-.553-.09c.186.045.376.067.567.066.327.018 1.376.191 2.473.1 1.339-.108 2.735-.484 2.802-.371 1.571-.74 3.114-2.229 2.692-4.136Z"/><path fill="#1A1A1A" d="M42.525 11.491c-3.343-.842-7.462-3.502-6.728-7.522.343-1.487 1.186-2.95 2.624-3.581 2.181-.95 4.71-.042 6.368 1.526 1.944 1.803 3.046 4.625 2.654 7.282-.374 1.841-1.218 3.537-2.237 5.083a12.58 12.58 0 0 0 .928-1.985 9.078 9.078 0 0 0 .593-3.174c.025-1.05.035-2.122-.263-3.135-.877-3.249-4.421-6.177-7.801-5-2.117.718-3.036 3.044-2.484 5.16.74 2.806 3.767 4.558 6.351 5.346h-.005Z"/><path fill="#1A1A1A" d="M42.629 11.517c-.879-.08-1.752-.218-2.63-.134-.7.097-1.377.32-2 .658a3.957 3.957 0 0 0-1.637 1.268c-.636.957-.582 2.25.438 2.9.857.564 2.033.554 3.025.323 1.592-.376 2.92-1.443 4.152-2.484 1.529-1.254 2.602-2.937 3.753-4.525l.036-.055-.01.02a.492.492 0 0 0-.036.293c-.022.162.319.522.5.46a.462.462 0 0 0 .23-.04.407.407 0 0 0 .095-.053l-.035.033-.064.06c-.022.024-.05.04-.12.015a1.112 1.112 0 0 1-.405-.255c-.228-.27-.24-.333-.261-.407-.034-.126.047-.14.11-.215a1.07 1.07 0 0 1 .203-.162.516.516 0 0 1 .306-.074c.188-.063.53.309.51.467a.578.578 0 0 1-.069.375 3.568 3.568 0 0 1-.24.359 23.57 23.57 0 0 1-4.251 4.029c-1.8 1.293-3.729 2.545-5.996 2.7a4.03 4.03 0 0 1-1.74-.234c-2.08-.793-2.22-3.748-.497-4.974a5.683 5.683 0 0 1 3.355-1.083c1.202-.02 2.229.436 3.278.735Zm5.839-1.081c1.798-1.708 4.909-3.658 7.365-2.879.884.2 1.77.808 2.054 1.728.796 2.956-2.805 4.766-5.24 4.75a18.752 18.752 0 0 1-3.445-.221c1.142.091 2.29.091 3.431 0 1.654-.115 3.378-.773 4.423-2.117.657-.843.804-2.145.062-2.97a2.677 2.677 0 0 0-1.396-.769c-2.293-.746-5.413 1.146-7.25 2.478h-.004Z"/><path fill="#1A1A1A" d="M49.681 13.85c1.179.355 2.422 1.13 2.548 2.487.102 1.105-.849 1.897-1.853 2.043-2.357.34-4.073-2.467-4.61-4.461h.028c.146.423.327.832.541 1.225.603 1.14 1.524 2.233 2.765 2.628 1.046.338 2.685-.086 2.693-1.411-.03-1.195-1.151-1.995-2.116-2.505l.005-.007Z"/><path fill="#1A1A1A" d="M49.151 7.85c.45.407.468.629.438.818-.022.388-.3.67-.477.99a34.129 34.129 0 0 1-3.06 4.516c-.406.44-.78.926-1.452.91l-.016-.014c-.056-.526.135-.809.296-1.132.543-.924 1.086-1.778 1.517-2.772.347-.75.75-1.647 1.107-2.382.159-.323.254-.66.584-.866a.64.64 0 0 1 .318-.134 1.884 1.884 0 0 1 .75.065h-.005Z"/></symbol><symbol id="icon-colombia-flag-round-circle-icon" viewBox="0 -5 55 40"><path fill="#fff" style="fill:var(--color2,#fff)" d="M16 1.225c4.08 0 7.774 1.654 10.448 4.328s4.328 6.368 4.328 10.448-1.654 7.774-4.328 10.448C23.774 29.123 20.08 30.777 16 30.777s-7.774-1.654-10.448-4.328c-2.674-2.674-4.328-6.368-4.328-10.448S2.878 8.227 5.551 5.553a14.729 14.729 0 0 1 10.448-4.327z"/><path fill="#ce1126" style="fill:var(--color3,#ce1126)" d="M27.687 22.812c-2.346 4.016-6.701 6.714-11.687 6.714s-9.341-2.698-11.687-6.714h23.373z"/><path fill="#003893" style="fill:var(--color4,#003893)" d="M27.687 22.812H4.314A13.467 13.467 0 0 1 2.475 16h27.051c0 2.4-.628 4.739-1.839 6.812z"/><path fill="#fcd116" style="fill:var(--color5,#fcd116)" d="M29.525 16H2.474c0-7.47 6.056-13.525 13.525-13.525S29.524 8.53 29.524 16z"/></symbol></defs></svg>