<svg aria-hidden="true" xmlns="http://www.w3.org/2000/svg" overflow="hidden">
    <defs>
        <symbol id="heart">
            <path d="M26 9.312c0-4.391-2.969-5.313-5.469-5.313-2.328 0-4.953 2.516-5.766 3.484-.375.453-1.156.453-1.531 0-.812-.969-3.437-3.484-5.766-3.484-2.5 0-5.469.922-5.469 5.313 0 2.859 2.891 5.516 2.922 5.547l9.078 8.75 9.063-8.734C23.109 14.828 26 12.172 26 9.312zm2 0c0 3.75-3.437 6.891-3.578 7.031l-9.734 9.375c-.187.187-.438.281-.688.281s-.5-.094-.688-.281l-9.75-9.406c-.125-.109-3.563-3.25-3.563-7 0-4.578 2.797-7.313 7.469-7.313 2.734 0 5.297 2.156 6.531 3.375 1.234-1.219 3.797-3.375 6.531-3.375 4.672 0 7.469 2.734 7.469 7.313z"/>
        </symbol>

        <symbol id="icon-user-o" viewBox="0 0 30 28">
            <path d="M18.766 12.25c2.203 0.641 5.234 2.812 5.234 9.922 0 3.219-2.391 5.828-5.328 5.828h-13.344c-2.938 0-5.328-2.609-5.328-5.828 0-7.109 3.031-9.281 5.234-9.922-0.781-1.234-1.234-2.688-1.234-4.25 0-4.406 3.594-8 8-8s8 3.594 8 8c0 1.563-0.453 3.016-1.234 4.25zM12 2c-3.313 0-6 2.688-6 6s2.688 6 6 6 6-2.688 6-6-2.688-6-6-6zM18.672 26c1.828 0 3.328-1.703 3.328-3.828 0-4.922-1.656-8-4.75-8.156-1.406 1.234-3.234 1.984-5.25 1.984s-3.844-0.75-5.25-1.984c-3.094 0.156-4.75 3.234-4.75 8.156 0 2.125 1.5 3.828 3.328 3.828h13.344z"></path>
        </symbol>
        <symbol id="icon-shopping-bag" viewBox="0 0 24 24">
            <path d="M19 5h-14l1.5-2h11zM21.794 5.392l-2.994-3.992c-0.196-0.261-0.494-0.399-0.8-0.4h-12c-0.326 0-0.616 0.156-0.8 0.4l-2.994 3.992c-0.043 0.056-0.081 0.117-0.111 0.182-0.065 0.137-0.096 0.283-0.095 0.426v14c0 0.828 0.337 1.58 0.879 2.121s1.293 0.879 2.121 0.879h14c0.828 0 1.58-0.337 2.121-0.879s0.879-1.293 0.879-2.121v-14c0-0.219-0.071-0.422-0.189-0.585-0.004-0.005-0.007-0.010-0.011-0.015zM4 7h16v13c0 0.276-0.111 0.525-0.293 0.707s-0.431 0.293-0.707 0.293h-14c-0.276 0-0.525-0.111-0.707-0.293s-0.293-0.431-0.293-0.707zM15 10c0 0.829-0.335 1.577-0.879 2.121s-1.292 0.879-2.121 0.879-1.577-0.335-2.121-0.879-0.879-1.292-0.879-2.121c0-0.552-0.448-1-1-1s-1 0.448-1 1c0 1.38 0.561 2.632 1.464 3.536s2.156 1.464 3.536 1.464 2.632-0.561 3.536-1.464 1.464-2.156 1.464-3.536c0-0.552-0.448-1-1-1s-1 0.448-1 1z"></path>
        </symbol>
        <symbol id="icon-search" viewBox="0 0 24 24">
            <path d="M16.041 15.856c-0.034 0.026-0.067 0.055-0.099 0.087s-0.060 0.064-0.087 0.099c-1.258 1.213-2.969 1.958-4.855 1.958-1.933 0-3.682-0.782-4.95-2.050s-2.050-3.017-2.050-4.95 0.782-3.682 2.050-4.95 3.017-2.050 4.95-2.050 3.682 0.782 4.95 2.050 2.050 3.017 2.050 4.95c0 1.886-0.745 3.597-1.959 4.856zM21.707 20.293l-3.675-3.675c1.231-1.54 1.968-3.493 1.968-5.618 0-2.485-1.008-4.736-2.636-6.364s-3.879-2.636-6.364-2.636-4.736 1.008-6.364 2.636-2.636 3.879-2.636 6.364 1.008 4.736 2.636 6.364 3.879 2.636 6.364 2.636c2.125 0 4.078-0.737 5.618-1.968l3.675 3.675c0.391 0.391 1.024 0.391 1.414 0s0.391-1.024 0-1.414z"></path>
        </symbol>
        <symbol id="icon-instagram" viewBox="0 0 32 32">
            <path d="M16 2.881c4.275 0 4.781 0.019 6.462 0.094 1.563 0.069 2.406 0.331 2.969 0.55 0.744 0.288 1.281 0.638 1.837 1.194 0.563 0.563 0.906 1.094 1.2 1.838 0.219 0.563 0.481 1.412 0.55 2.969 0.075 1.688 0.094 2.194 0.094 6.463s-0.019 4.781-0.094 6.463c-0.069 1.563-0.331 2.406-0.55 2.969-0.288 0.744-0.637 1.281-1.194 1.837-0.563 0.563-1.094 0.906-1.837 1.2-0.563 0.219-1.413 0.481-2.969 0.55-1.688 0.075-2.194 0.094-6.463 0.094s-4.781-0.019-6.463-0.094c-1.563-0.069-2.406-0.331-2.969-0.55-0.744-0.288-1.281-0.637-1.838-1.194-0.563-0.563-0.906-1.094-1.2-1.837-0.219-0.563-0.481-1.413-0.55-2.969-0.075-1.688-0.094-2.194-0.094-6.463s0.019-4.781 0.094-6.463c0.069-1.563 0.331-2.406 0.55-2.969 0.288-0.744 0.638-1.281 1.194-1.838 0.563-0.563 1.094-0.906 1.838-1.2 0.563-0.219 1.412-0.481 2.969-0.55 1.681-0.075 2.188-0.094 6.463-0.094zM16 0c-4.344 0-4.887 0.019-6.594 0.094-1.7 0.075-2.869 0.35-3.881 0.744-1.056 0.412-1.95 0.956-2.837 1.85-0.894 0.888-1.438 1.781-1.85 2.831-0.394 1.019-0.669 2.181-0.744 3.881-0.075 1.713-0.094 2.256-0.094 6.6s0.019 4.887 0.094 6.594c0.075 1.7 0.35 2.869 0.744 3.881 0.413 1.056 0.956 1.95 1.85 2.837 0.887 0.887 1.781 1.438 2.831 1.844 1.019 0.394 2.181 0.669 3.881 0.744 1.706 0.075 2.25 0.094 6.594 0.094s4.888-0.019 6.594-0.094c1.7-0.075 2.869-0.35 3.881-0.744 1.050-0.406 1.944-0.956 2.831-1.844s1.438-1.781 1.844-2.831c0.394-1.019 0.669-2.181 0.744-3.881 0.075-1.706 0.094-2.25 0.094-6.594s-0.019-4.887-0.094-6.594c-0.075-1.7-0.35-2.869-0.744-3.881-0.394-1.063-0.938-1.956-1.831-2.844-0.887-0.887-1.781-1.438-2.831-1.844-1.019-0.394-2.181-0.669-3.881-0.744-1.712-0.081-2.256-0.1-6.6-0.1v0z"></path>
            <path d="M16 7.781c-4.537 0-8.219 3.681-8.219 8.219s3.681 8.219 8.219 8.219 8.219-3.681 8.219-8.219c0-4.537-3.681-8.219-8.219-8.219zM16 21.331c-2.944 0-5.331-2.387-5.331-5.331s2.387-5.331 5.331-5.331c2.944 0 5.331 2.387 5.331 5.331s-2.387 5.331-5.331 5.331z"></path>
            <path d="M26.462 7.456c0 1.060-0.859 1.919-1.919 1.919s-1.919-0.859-1.919-1.919c0-1.060 0.859-1.919 1.919-1.919s1.919 0.859 1.919 1.919z"></path>
        </symbol>
        <symbol id="icon-facebook" viewBox="0 0 24 24">
            <path d="M21.984 12q0-2.063-0.773-3.867t-2.156-3.188-3.188-2.156-3.867-0.773-3.867 0.773-3.188 2.156-2.156 3.188-0.773 3.867q0 1.828 0.586 3.445t1.688 2.93 2.555 2.203 3.141 1.219v-6.797h-1.969v-3h1.969v-2.484q0-0.984 0.492-1.781t1.266-1.266 1.758-0.469h2.484v3h-1.969q-0.422 0-0.727 0.305t-0.305 0.68v2.016h3v3h-3v6.938q1.922-0.188 3.563-1.031t2.859-2.18 1.898-3.047 0.68-3.68z"></path>
        </symbol>
        <symbol id="icon-twitter" viewBox="0 0 26 28">
            <path d="M25.312 6.375c-0.688 1-1.547 1.891-2.531 2.609 0.016 0.219 0.016 0.438 0.016 0.656 0 6.672-5.078 14.359-14.359 14.359-2.859 0-5.516-0.828-7.75-2.266 0.406 0.047 0.797 0.063 1.219 0.063 2.359 0 4.531-0.797 6.266-2.156-2.219-0.047-4.078-1.5-4.719-3.5 0.313 0.047 0.625 0.078 0.953 0.078 0.453 0 0.906-0.063 1.328-0.172-2.312-0.469-4.047-2.5-4.047-4.953v-0.063c0.672 0.375 1.453 0.609 2.281 0.641-1.359-0.906-2.25-2.453-2.25-4.203 0-0.938 0.25-1.797 0.688-2.547 2.484 3.062 6.219 5.063 10.406 5.281-0.078-0.375-0.125-0.766-0.125-1.156 0-2.781 2.25-5.047 5.047-5.047 1.453 0 2.766 0.609 3.687 1.594 1.141-0.219 2.234-0.641 3.203-1.219-0.375 1.172-1.172 2.156-2.219 2.781 1.016-0.109 2-0.391 2.906-0.781z"></path>
        </symbol>
        <symbol id="icon-linkedin" viewBox="0 0 24 28">
            <path d="M5.453 9.766v15.484h-5.156v-15.484h5.156zM5.781 4.984c0.016 1.484-1.109 2.672-2.906 2.672v0h-0.031c-1.734 0-2.844-1.188-2.844-2.672 0-1.516 1.156-2.672 2.906-2.672 1.766 0 2.859 1.156 2.875 2.672zM24 16.375v8.875h-5.141v-8.281c0-2.078-0.75-3.5-2.609-3.5-1.422 0-2.266 0.953-2.641 1.875-0.125 0.344-0.172 0.797-0.172 1.266v8.641h-5.141c0.063-14.031 0-15.484 0-15.484h5.141v2.25h-0.031c0.672-1.062 1.891-2.609 4.672-2.609 3.391 0 5.922 2.219 5.922 6.969z"></path>
        </symbol>
        <symbol id="icon-paypal-color-icon" viewBox="0 0 54 32">
            <path fill="#003087" style="fill: var(--color1, #003087)" d="M31.837 8.818c-0.783-0.892-2.2-1.275-4.010-1.275h-5.256c-0.37 0-0.687 0.267-0.743 0.635l-2.19 13.88c-0.043 0.274 0.168 0.522 0.446 0.522h3.247l0.816-5.17-0.026 0.162c0.056-0.367 0.37-0.634 0.74-0.634l1.542 0.001c3.030 0 5.401-1.228 6.095-4.79 0.020-0.106 0.039-0.208 0.053-0.308 0.205-1.315 0-2.213-0.714-3.022v-0z"></path>
            <path fill="#009cde" style="fill: var(--color2, #009cde)" d="M33.472 12.64c-0.79 3.505-3.228 5.355-7.070 5.355l-1.278-0-0.889 5.643-1.071 0.001-0.056 0.363c-0.036 0.241 0.149 0.456 0.39 0.456h2.736c0.323 0 0.599-0.235 0.651-0.555l0.026-0.138 0.516-3.268 0.033-0.178c0.049-0.32 0.327-0.555 0.651-0.555l0.406-0c2.649 0 4.724-1.077 5.332-4.189 0.228-1.183 0.142-2.187-0.376-2.933h-0.001z"></path>
            <path fill="#808080" style="fill: var(--color3, #808080)" d="M5.044 0h43.512c1.388 0 2.649 0.567 3.563 1.481s1.481 2.175 1.481 3.563v21.913c0 1.388-0.567 2.649-1.481 3.563s-2.175 1.481-3.563 1.481h-43.512c-1.388 0-2.649-0.567-3.563-1.481s-1.481-2.175-1.481-3.563v-21.913c0-1.388 0.567-2.649 1.481-3.563s2.175-1.481 3.563-1.481zM48.556 1.738h-43.512c-0.908 0-1.734 0.372-2.334 0.972s-0.972 1.426-0.972 2.334v21.913c0 0.908 0.372 1.734 0.972 2.334s1.426 0.972 2.334 0.972h43.512c0.908 0 1.734-0.372 2.334-0.972s0.972-1.426 0.972-2.333v-21.913c0-0.908-0.372-1.734-0.972-2.334s-1.426-0.972-2.334-0.972z"></path>
        </symbol>
        <symbol id="icon-american-express-icon" viewBox="0 0 54 32">
            <path fill="#006ece" style="fill: var(--color4, #006ece)" d="M16.28 5.441h21.040v21.118h-21.040z"></path>
            <path fill="#fff" style="fill: var(--color5, #fff)" d="M18.183 14.573l-0.404-0.984-0.403 0.984h0.807zM37.313 17.949h-1.079c-0.107 0-0.18 0.005-0.238 0.045-0.062 0.040-0.087 0.101-0.087 0.178 0 0.093 0.053 0.157 0.13 0.184 0.061 0.022 0.128 0.027 0.228 0.029l0.319 0.008c0.323 0.009 0.539 0.064 0.672 0.198 0.022 0.019 0.038 0.042 0.055 0.063v-0.705zM37.313 19.579c-0.146 0.212-0.425 0.317-0.803 0.317h-1.142v-0.531h1.137c0.112 0 0.191-0.015 0.239-0.062 0.040-0.037 0.071-0.091 0.071-0.16 0-0.072-0.031-0.13-0.072-0.164-0.045-0.039-0.106-0.055-0.208-0.056-0.555-0.018-1.247 0.017-1.247-0.765 0-0.358 0.228-0.736 0.846-0.736h1.178v-0.492h-1.095c-0.331 0-0.57 0.079-0.74 0.202v-0.202h-1.617c-0.257 0-0.561 0.065-0.706 0.202l0.001-0.202h-2.89v0.202c-0.23-0.165-0.617-0.202-0.797-0.202h-1.904v0.202c-0.183-0.176-0.586-0.202-0.833-0.202h-2.133l-0.488 0.53-0.456-0.53h-3.187v3.451h3.127l0.503-0.536 0.474 0.536 1.925 0.001v-0.812h0.191c0.254 0.004 0.557-0.006 0.822-0.12v0.931h1.589v-0.9h0.077c0.098 0 0.107 0.006 0.107 0.102v0.799h4.828c0.305 0 0.626-0.079 0.803-0.221v0.221h1.532c0.319 0 0.629-0.045 0.867-0.159v-0.644zM34.954 18.591c0.117 0.12 0.177 0.271 0.177 0.524 0 0.533-0.333 0.781-0.928 0.781h-1.152v-0.531h1.147c0.113 0 0.191-0.015 0.241-0.062 0.040-0.037 0.070-0.091 0.070-0.16 0-0.072-0.031-0.13-0.073-0.164-0.045-0.039-0.106-0.055-0.209-0.056-0.553-0.018-1.245 0.017-1.245-0.765 0-0.358 0.225-0.736 0.844-0.736h1.185v0.526h-1.083c-0.109 0-0.178 0.005-0.238 0.045-0.064 0.040-0.088 0.101-0.088 0.178 0 0.093 0.055 0.157 0.129 0.184 0.062 0.022 0.128 0.027 0.229 0.029l0.319 0.008c0.321 0.009 0.54 0.064 0.674 0.198zM29.621 18.44c-0.078 0.046-0.176 0.050-0.291 0.050h-0.719v-0.555h0.728c0.105 0 0.211 0.002 0.281 0.043 0.077 0.041 0.122 0.117 0.122 0.223 0 0.105-0.046 0.191-0.122 0.238zM29.978 18.747c0.132 0.048 0.239 0.135 0.289 0.208 0.083 0.121 0.097 0.233 0.098 0.452v0.49h-0.593v-0.31c0-0.149 0.014-0.368-0.096-0.483-0.086-0.090-0.217-0.111-0.432-0.111h-0.633v0.904h-0.593v-2.473h1.363c0.3 0 0.518 0.013 0.712 0.118 0.186 0.111 0.302 0.268 0.302 0.549 0 0.393-0.263 0.595-0.419 0.657zM30.725 17.423h1.973v0.512h-1.384v0.448h1.35v0.505h-1.35v0.492l1.384 0.002v0.514h-1.973v-2.473zM26.739 18.564h-0.765v-0.628h0.771c0.214 0 0.361 0.086 0.361 0.303 0 0.214-0.141 0.325-0.367 0.325zM25.385 19.672l-0.906-1.008 0.906-0.975v1.983zM23.043 19.38h-1.453v-0.492h1.297v-0.505h-1.297v-0.448h1.481l0.646 0.72-0.674 0.725zM27.74 18.239c0 0.685-0.511 0.828-1.029 0.828h-0.737v0.829h-1.147l-0.728-0.818-0.756 0.818h-2.34v-2.473h2.377l0.727 0.81 0.752-0.81h1.888c0.469 0 0.995 0.13 0.995 0.816zM27.092 14.183c-0.081 0.046-0.177 0.050-0.292 0.050h-0.719v-0.549h0.728c0.104 0 0.212 0.004 0.282 0.043 0.076 0.038 0.123 0.114 0.123 0.218 0 0.109-0.046 0.195-0.122 0.238zM32.214 14.573l-0.41-0.984-0.405 0.984h0.815zM22.668 15.639h-0.605l-0.004-1.933-0.856 1.933h-0.518l-0.861-1.938v1.938h-1.202l-0.226-0.551h-1.231l-0.228 0.551h-0.642l1.056-2.472h0.879l1.005 2.342v-2.342h0.966l0.772 1.678 0.711-1.678h0.984v2.472zM25.082 15.639h-1.974v-2.472h1.974v0.517h-1.382v0.444h1.348v0.508l-1.348-0.002v0.494h1.382v0.511zM27.866 13.835c0 0.391-0.263 0.597-0.416 0.658 0.129 0.050 0.239 0.135 0.291 0.209 0.083 0.12 0.1 0.233 0.1 0.451v0.486h-0.596l-0.002-0.311c0-0.146 0.015-0.361-0.095-0.479-0.086-0.088-0.216-0.106-0.43-0.106h-0.636v0.897h-0.59v-2.472h1.36c0.3 0 0.524 0.010 0.715 0.12 0.188 0.11 0.299 0.271 0.299 0.548zM28.812 15.639h-0.603v-2.472h0.603v2.472zM35.806 15.639h-0.837l-1.12-1.853 0.001 1.853h-1.203l-0.23-0.551h-1.23l-0.221 0.551h-0.692c-0.288 0-0.652-0.064-0.856-0.272-0.21-0.212-0.316-0.494-0.316-0.945 0-0.367 0.065-0.701 0.319-0.966 0.192-0.198 0.49-0.289 0.897-0.289h0.571v0.53h-0.558c-0.216 0-0.339 0.033-0.457 0.148-0.099 0.104-0.169 0.301-0.169 0.561 0 0.265 0.051 0.454 0.164 0.58 0.089 0.097 0.255 0.127 0.411 0.127h0.266l0.832-1.945h0.886l1 2.338v-2.338h0.902l1.039 1.722v-1.722h0.604v2.472zM16.287 16.127h1.010l0.228-0.551h0.51l0.226 0.551h1.987v-0.421l0.178 0.422h1.030l0.177-0.427v0.425h4.938l-0.002-0.902h0.096c0.067 0.001 0.087 0.009 0.087 0.119v0.783h2.552v-0.21c0.206 0.111 0.528 0.21 0.947 0.21h1.075l0.23-0.551h0.51l0.225 0.551h2.069v-0.523l0.314 0.523h1.658v-3.449h-1.642v0.408l-0.229-0.408h-1.685v0.408l-0.211-0.408h-2.275c-0.381 0-0.717 0.053-0.987 0.201v-0.201h-1.568v0.201c-0.174-0.153-0.408-0.201-0.668-0.201h-5.737l-0.387 0.891-0.393-0.891h-1.807v0.408l-0.2-0.408h-1.54l-0.716 1.638v1.811z"></path>
            <path fill="#808080" style="fill: var(--color3, #808080)" d="M5.044 0h43.512c1.388 0 2.649 0.567 3.563 1.481s1.481 2.175 1.481 3.563v21.913c0 1.388-0.567 2.649-1.481 3.563s-2.175 1.481-3.563 1.481h-43.512c-1.388 0-2.649-0.567-3.563-1.481s-1.481-2.175-1.481-3.563v-21.913c0-1.388 0.567-2.649 1.481-3.563s2.175-1.481 3.563-1.481zM48.556 1.738h-43.512c-0.908 0-1.734 0.372-2.334 0.972s-0.972 1.426-0.972 2.334v21.913c0 0.908 0.372 1.734 0.972 2.334s1.426 0.972 2.334 0.972h43.512c0.908 0 1.734-0.372 2.334-0.972s0.972-1.426 0.972-2.333v-21.913c0-0.908-0.372-1.734-0.972-2.334s-1.426-0.972-2.334-0.972z"></path>
        </symbol>
        <symbol id="icon-master-card-icon" viewBox="0 0 54 32">
            <path fill="#141515" style="fill: var(--color6, #141515)" d="M18.533 23.487c-0.069-0.070-0.152-0.124-0.247-0.162s-0.2-0.058-0.313-0.058c-0.060 0-0.122 0.005-0.187 0.016s-0.128 0.029-0.19 0.055c-0.062 0.026-0.121 0.062-0.177 0.109s-0.105 0.105-0.146 0.175c-0.067-0.11-0.157-0.197-0.271-0.26s-0.245-0.094-0.392-0.094c-0.049 0-0.1 0.005-0.153 0.013s-0.105 0.024-0.157 0.046c-0.052 0.022-0.102 0.052-0.149 0.090s-0.090 0.086-0.129 0.144v-0.242h-0.416v1.982h0.42v-1.098c0-0.084 0.013-0.159 0.040-0.224s0.063-0.12 0.107-0.164c0.045-0.044 0.097-0.078 0.157-0.1s0.124-0.034 0.192-0.034c0.142 0 0.251 0.045 0.329 0.135s0.117 0.218 0.117 0.385v1.103h0.421v-1.098c0-0.084 0.013-0.159 0.040-0.224s0.062-0.12 0.107-0.164c0.045-0.044 0.097-0.078 0.157-0.1s0.124-0.034 0.192-0.034c0.141 0 0.251 0.045 0.329 0.135s0.117 0.218 0.117 0.385v1.103h0.421v-1.245c0-0.116-0.019-0.222-0.057-0.319s-0.092-0.18-0.161-0.249zM38.274 25.166v0.033h0.038c0.008 0 0.014-0.001 0.018-0.004s0.006-0.007 0.006-0.013-0.002-0.010-0.006-0.013c-0.004-0.003-0.010-0.004-0.018-0.004h-0.038zM38.313 25.122c0.025 0 0.043 0.005 0.056 0.016s0.019 0.025 0.019 0.044c0 0.014-0.005 0.026-0.014 0.036s-0.023 0.016-0.040 0.018l0.056 0.064h-0.060l-0.050-0.063h-0.006v0.063h-0.050v-0.179h0.089zM38.301 25.358c0.020 0 0.039-0.004 0.057-0.012s0.033-0.018 0.046-0.031c0.013-0.013 0.023-0.029 0.031-0.046s0.011-0.037 0.011-0.057c0-0.020-0.004-0.039-0.011-0.057s-0.018-0.033-0.031-0.046c-0.013-0.013-0.028-0.023-0.046-0.031s-0.037-0.011-0.057-0.011c-0.021 0-0.040 0.004-0.058 0.011s-0.033 0.018-0.047 0.031c-0.013 0.013-0.024 0.028-0.031 0.046s-0.011 0.037-0.011 0.057c0 0.020 0.004 0.040 0.011 0.057s0.018 0.033 0.031 0.046c0.013 0.013 0.029 0.023 0.047 0.031s0.037 0.012 0.058 0.012zM38.301 25.010c0.029 0 0.056 0.005 0.081 0.016s0.047 0.025 0.066 0.043c0.019 0.018 0.034 0.040 0.044 0.064s0.016 0.051 0.016 0.079c0 0.028-0.005 0.054-0.016 0.078s-0.025 0.046-0.044 0.064c-0.019 0.019-0.041 0.033-0.066 0.044s-0.052 0.016-0.081 0.016c-0.029 0-0.057-0.005-0.082-0.016s-0.048-0.025-0.066-0.044c-0.019-0.018-0.033-0.040-0.044-0.064s-0.016-0.051-0.016-0.078c0-0.028 0.005-0.054 0.016-0.079s0.025-0.046 0.044-0.064c0.019-0.018 0.041-0.033 0.066-0.043s0.053-0.016 0.082-0.016zM29.963 23.851c0.055-0.056 0.121-0.099 0.197-0.13s0.158-0.047 0.246-0.047c0.097 0 0.187 0.015 0.271 0.047 0.081 0.030 0.151 0.072 0.21 0.125l0.208-0.346c-0.078-0.062-0.166-0.114-0.264-0.153-0.13-0.053-0.272-0.080-0.425-0.080s-0.295 0.027-0.425 0.080-0.243 0.126-0.337 0.219c-0.094 0.093-0.169 0.203-0.222 0.33s-0.081 0.265-0.081 0.414c0 0.149 0.027 0.287 0.081 0.414s0.128 0.237 0.222 0.33c0.094 0.093 0.207 0.166 0.337 0.219s0.272 0.080 0.425 0.080c0.153 0 0.295-0.027 0.425-0.080 0.098-0.040 0.186-0.091 0.264-0.153l-0.208-0.346c-0.059 0.053-0.129 0.095-0.21 0.125-0.083 0.031-0.174 0.047-0.271 0.047-0.088 0-0.17-0.015-0.246-0.047s-0.142-0.074-0.197-0.13c-0.055-0.056-0.099-0.123-0.13-0.201s-0.047-0.164-0.047-0.258c0-0.094 0.016-0.18 0.047-0.257s0.075-0.145 0.13-0.201zM36.941 24.562c-0.029 0.077-0.070 0.144-0.122 0.201s-0.115 0.101-0.188 0.133c-0.073 0.032-0.155 0.049-0.244 0.049-0.094 0-0.178-0.017-0.251-0.051s-0.136-0.079-0.187-0.137c-0.051-0.057-0.090-0.124-0.118-0.202s-0.041-0.159-0.041-0.246c0-0.087 0.014-0.169 0.041-0.246s0.067-0.144 0.118-0.202c0.051-0.057 0.114-0.103 0.187-0.137s0.158-0.051 0.251-0.051c0.089 0 0.171 0.016 0.244 0.049s0.136 0.077 0.188 0.133c0.052 0.057 0.093 0.123 0.122 0.201s0.043 0.161 0.043 0.252-0.014 0.175-0.043 0.252zM36.958 22.513v1.046c-0.069-0.088-0.155-0.159-0.257-0.212s-0.224-0.080-0.366-0.080c-0.139 0-0.269 0.026-0.389 0.078s-0.225 0.124-0.315 0.216-0.16 0.202-0.211 0.33c-0.051 0.128-0.077 0.267-0.077 0.419s0.025 0.291 0.077 0.419c0.051 0.128 0.121 0.238 0.211 0.33s0.194 0.164 0.315 0.216c0.12 0.052 0.25 0.078 0.389 0.078 0.142 0 0.264-0.026 0.366-0.079s0.188-0.123 0.257-0.211v0.238h0.432v-2.787h-0.432zM34.938 23.267c-0.122 0-0.231 0.022-0.329 0.066s-0.18 0.15-0.246 0.246v-0.26h-0.393v1.982h0.397v-1.090c0-0.084 0.012-0.159 0.035-0.225s0.056-0.122 0.097-0.168 0.091-0.080 0.149-0.104c0.058-0.023 0.121-0.035 0.19-0.035 0.053 0 0.109 0.006 0.17 0.019 0.031 0.006 0.060 0.014 0.087 0.023l0.128-0.414c-0.035-0.011-0.070-0.020-0.106-0.027-0.053-0.009-0.113-0.013-0.179-0.013zM28.928 23.267c-0.121 0-0.231 0.022-0.329 0.066s-0.18 0.15-0.246 0.246v-0.26h-0.392v1.982h0.397v-1.090c0-0.084 0.012-0.159 0.035-0.225s0.056-0.122 0.097-0.168 0.091-0.080 0.149-0.104c0.058-0.023 0.121-0.035 0.19-0.035 0.053 0 0.109 0.006 0.17 0.019 0.031 0.006 0.060 0.014 0.087 0.023l0.128-0.414c-0.035-0.011-0.070-0.020-0.106-0.027-0.053-0.009-0.113-0.013-0.179-0.013zM25.024 24.905c-0.070 0.026-0.138 0.039-0.206 0.039-0.044 0-0.085-0.007-0.123-0.021s-0.071-0.035-0.099-0.065c-0.028-0.030-0.051-0.068-0.067-0.115s-0.025-0.104-0.025-0.17v-0.863h0.695v-0.393h-0.695v-0.6h-0.434v0.6h-0.395v0.393h0.395v0.871c0 0.264 0.062 0.457 0.187 0.582s0.3 0.187 0.525 0.187c0.126 0 0.238-0.019 0.338-0.058 0.066-0.026 0.127-0.055 0.185-0.087l-0.148-0.362c-0.042 0.022-0.086 0.042-0.132 0.060zM32.946 24.562c-0.029 0.077-0.070 0.144-0.122 0.201s-0.115 0.101-0.188 0.133c-0.073 0.032-0.154 0.049-0.244 0.049-0.094 0-0.178-0.017-0.251-0.051s-0.136-0.079-0.187-0.137c-0.051-0.057-0.090-0.124-0.118-0.202s-0.041-0.159-0.041-0.246c0-0.087 0.014-0.169 0.041-0.246s0.067-0.144 0.118-0.202 0.113-0.103 0.187-0.137c0.074-0.034 0.158-0.051 0.251-0.051 0.090 0 0.171 0.016 0.244 0.049s0.136 0.077 0.188 0.133 0.093 0.123 0.122 0.201c0.029 0.077 0.043 0.161 0.043 0.252s-0.014 0.175-0.043 0.252zM32.963 23.559c-0.069-0.088-0.154-0.159-0.256-0.212s-0.224-0.080-0.366-0.080c-0.139 0-0.269 0.026-0.389 0.078s-0.225 0.124-0.314 0.216c-0.090 0.092-0.16 0.202-0.211 0.33s-0.077 0.267-0.077 0.419 0.025 0.291 0.077 0.419c0.051 0.128 0.121 0.238 0.211 0.33s0.194 0.164 0.314 0.216 0.25 0.078 0.389 0.078c0.142 0 0.264-0.026 0.366-0.079s0.188-0.123 0.256-0.211v0.238h0.432v-1.982h-0.432v0.24zM26.009 24.14c0.011-0.072 0.030-0.138 0.058-0.197s0.063-0.112 0.106-0.155c0.044-0.043 0.095-0.077 0.155-0.1s0.129-0.035 0.206-0.035c0.138 0 0.25 0.043 0.337 0.128s0.142 0.206 0.165 0.36h-1.028zM27.218 23.555c-0.082-0.092-0.181-0.163-0.296-0.213s-0.242-0.076-0.379-0.076c-0.146 0-0.28 0.025-0.401 0.076s-0.224 0.121-0.311 0.213c-0.087 0.092-0.154 0.202-0.203 0.33s-0.072 0.27-0.072 0.424c0 0.157 0.025 0.3 0.074 0.428s0.119 0.238 0.209 0.329 0.197 0.161 0.321 0.211c0.124 0.050 0.261 0.075 0.41 0.075 0.15 0 0.293-0.021 0.429-0.062s0.264-0.114 0.386-0.217l-0.215-0.308c-0.083 0.066-0.174 0.118-0.274 0.154s-0.2 0.055-0.299 0.055c-0.070 0-0.138-0.009-0.203-0.029s-0.123-0.049-0.176-0.090-0.097-0.093-0.135-0.156c-0.037-0.063-0.063-0.14-0.077-0.23h1.465c0.003-0.025 0.005-0.051 0.006-0.079s0.002-0.055 0.002-0.083c0-0.154-0.023-0.295-0.069-0.423s-0.11-0.237-0.192-0.329zM23.17 24.306c-0.122-0.094-0.29-0.157-0.507-0.189l-0.205-0.031c-0.046-0.007-0.088-0.015-0.128-0.024s-0.074-0.021-0.103-0.036c-0.029-0.015-0.052-0.035-0.069-0.058s-0.026-0.052-0.026-0.087c0-0.070 0.033-0.127 0.098-0.171s0.158-0.065 0.276-0.065c0.062 0 0.123 0.005 0.183 0.017s0.117 0.025 0.171 0.041c0.054 0.017 0.103 0.035 0.147 0.055s0.081 0.039 0.112 0.057l0.186-0.337c-0.103-0.066-0.224-0.118-0.362-0.154s-0.285-0.055-0.441-0.055c-0.127 0-0.241 0.015-0.341 0.045s-0.186 0.072-0.257 0.126c-0.071 0.055-0.126 0.121-0.164 0.2s-0.057 0.167-0.057 0.265c0 0.16 0.057 0.289 0.17 0.388s0.281 0.163 0.502 0.193l0.207 0.027c0.119 0.016 0.206 0.043 0.261 0.080s0.083 0.083 0.083 0.14c0 0.074-0.038 0.133-0.114 0.177s-0.188 0.065-0.337 0.065c-0.081 0-0.154-0.005-0.218-0.017s-0.123-0.026-0.176-0.044c-0.053-0.019-0.101-0.040-0.143-0.064s-0.081-0.050-0.117-0.078l-0.201 0.325c0.072 0.054 0.147 0.097 0.225 0.13s0.156 0.059 0.232 0.077c0.076 0.019 0.148 0.031 0.215 0.037s0.127 0.009 0.178 0.009c0.142 0 0.269-0.016 0.382-0.048s0.207-0.076 0.284-0.134c0.077-0.057 0.135-0.125 0.176-0.205s0.061-0.166 0.061-0.262c0-0.17-0.060-0.302-0.182-0.396zM20.734 24.562c-0.029 0.077-0.070 0.144-0.122 0.201s-0.115 0.101-0.188 0.133c-0.073 0.032-0.155 0.049-0.244 0.049-0.094 0-0.178-0.017-0.251-0.051s-0.136-0.079-0.187-0.137c-0.051-0.057-0.090-0.124-0.118-0.202s-0.041-0.159-0.041-0.246c0-0.087 0.014-0.169 0.041-0.246s0.067-0.144 0.118-0.202 0.114-0.103 0.187-0.137c0.074-0.034 0.158-0.051 0.251-0.051 0.090 0 0.171 0.016 0.244 0.049s0.136 0.077 0.188 0.133 0.093 0.123 0.122 0.201c0.029 0.077 0.043 0.161 0.043 0.252s-0.014 0.175-0.043 0.252zM20.751 23.559c-0.069-0.088-0.155-0.159-0.257-0.212s-0.224-0.080-0.366-0.080c-0.139 0-0.269 0.026-0.389 0.078s-0.225 0.124-0.314 0.216c-0.090 0.092-0.16 0.202-0.211 0.33s-0.077 0.267-0.077 0.419 0.026 0.291 0.077 0.419c0.051 0.128 0.121 0.238 0.211 0.33s0.194 0.164 0.314 0.216c0.12 0.052 0.25 0.078 0.389 0.078 0.142 0 0.264-0.026 0.366-0.079s0.188-0.123 0.257-0.211v0.238h0.432v-1.982h-0.432v0.24z"></path>
            <path fill="#de2c1d" style="fill: var(--color7, #de2c1d)" d="M23.648 14.055c0-2.374 1.109-4.488 2.836-5.856-1.274-1.009-2.882-1.613-4.633-1.613-4.125 0-7.469 3.344-7.469 7.469s3.344 7.469 7.469 7.469c1.751 0 3.359-0.604 4.633-1.613-1.727-1.368-2.836-3.482-2.836-5.856z"></path>
            <path fill="#ed6100" style="fill: var(--color8, #ed6100)" d="M23.648 14.055c0 2.374 1.109 4.488 2.836 5.856 1.727-1.368 2.836-3.482 2.836-5.856s-1.109-4.488-2.836-5.856c-1.727 1.368-2.836 3.482-2.836 5.856z"></path>
            <path fill="#f79f06" style="fill: var(--color9, #f79f06)" d="M31.117 6.585c-1.751 0-3.359 0.604-4.633 1.613 1.727 1.368 2.836 3.482 2.836 5.856s-1.109 4.488-2.836 5.856c1.273 1.009 2.882 1.613 4.633 1.613 4.125 0 7.469-3.344 7.469-7.469s-3.344-7.469-7.469-7.469zM39.111 18.366v-0.317l-0.103 0.274h-0.114l-0.103-0.273v0.316h-0.107v-0.457h0.153l0.114 0.293 0.113-0.293h0.154v0.457h-0.107zM38.343 18.366v-0.359h-0.145v-0.099h0.397v0.099h-0.145v0.359h-0.107z"></path>
            <path fill="#808080" style="fill: var(--color3, #808080)" d="M5.044 0h43.512c1.388 0 2.649 0.567 3.563 1.481s1.481 2.175 1.481 3.563v21.913c0 1.388-0.567 2.649-1.481 3.563s-2.175 1.481-3.563 1.481h-43.512c-1.388 0-2.649-0.567-3.563-1.481s-1.481-2.175-1.481-3.563v-21.913c0-1.388 0.567-2.649 1.481-3.563s2.175-1.481 3.563-1.481zM48.556 1.738h-43.512c-0.908 0-1.734 0.372-2.334 0.972s-0.972 1.426-0.972 2.334v21.913c0 0.908 0.372 1.734 0.972 2.334s1.426 0.972 2.334 0.972h43.512c0.908 0 1.734-0.372 2.334-0.972s0.972-1.426 0.972-2.333v-21.913c0-0.908-0.372-1.734-0.972-2.334s-1.426-0.972-2.334-0.972z"></path>
        </symbol>
        <symbol id="icon-visa-icon" viewBox="0 0 54 32">
            <path fill="#808080" style="fill: var(--color3, #808080)" d="M5.044 0h43.512c1.388 0 2.649 0.567 3.563 1.481s1.481 2.175 1.481 3.563v21.913c0 1.388-0.567 2.649-1.481 3.563s-2.175 1.481-3.563 1.481h-43.512c-1.388 0-2.649-0.567-3.563-1.481s-1.481-2.175-1.481-3.563v-21.913c0-1.388 0.567-2.649 1.481-3.563s2.175-1.481 3.563-1.481zM48.556 1.738h-43.512c-0.908 0-1.734 0.372-2.334 0.972s-0.972 1.426-0.972 2.334v21.913c0 0.908 0.372 1.734 0.972 2.334s1.426 0.972 2.334 0.972h43.512c0.908 0 1.734-0.372 2.334-0.972s0.972-1.426 0.972-2.333v-21.913c0-0.908-0.372-1.734-0.972-2.334s-1.426-0.972-2.334-0.972z"></path>
            <path fill="#191e70" style="fill: var(--color10, #191e70)" d="M21.97 20.868l1.655-9.713h2.647l-1.656 9.713zM34.218 11.395c-0.525-0.197-1.346-0.408-2.373-0.408-2.616-0-4.459 1.317-4.474 3.205-0.015 1.395 1.316 2.174 2.32 2.639 1.030 0.476 1.377 0.78 1.372 1.205-0.007 0.651-0.823 0.948-1.584 0.948-1.059 0-1.622-0.147-2.492-0.51l-0.341-0.155-0.372 2.174c0.618 0.271 1.762 0.506 2.949 0.518 2.783-0 4.589-1.302 4.61-3.318 0.010-1.105-0.695-1.946-2.223-2.639-0.925-0.45-1.492-0.749-1.486-1.204 0-0.404 0.48-0.835 1.516-0.835 0.866-0.014 1.493 0.175 1.981 0.372l0.237 0.112 0.359-2.105zM41.006 11.165h-2.046c-0.634 0-1.108 0.173-1.386 0.806l-3.932 8.9h2.78s0.455-1.197 0.557-1.459c0.304 0 3.004 0.004 3.39 0.004 0.079 0.34 0.322 1.455 0.322 1.455l2.457-0-2.143-9.706zM37.742 17.425c0.219-0.56 1.055-2.715 1.055-2.715-0.015 0.026 0.217-0.562 0.351-0.927l0.179 0.837s0.507 2.319 0.613 2.805l-2.198-0zM19.749 11.163l-2.592 6.623-0.276-1.346c-0.482-1.552-1.986-3.233-3.667-4.074l2.37 8.494 2.801-0.003 4.168-9.694h-2.804z"></path>
            <path fill="#f7b600" style="fill: var(--color11, #f7b600)" d="M14.753 11.157h-4.269l-0.034 0.202c3.321 0.804 5.519 2.747 6.431 5.081l-0.928-4.463c-0.16-0.615-0.625-0.799-1.2-0.82z"></path>
        </symbol>
            <symbol id="icon-logo-yersi">
                <path fill="" d="M12.953 25.575c.019-.543.116-1.08.29-1.594a7.323 7.323 0 0 1 .7-1.48c.302-.488.65-.944 1.041-1.361a7.997 7.997 0 0 1 1.301-1.131c1.016-.695 2.046-1.05 3.092-1.064 1.225-.016 2.047.422 2.466 1.314.175.331.251.707.218 1.081-.177 1.642-1.764 2.375-2.181 2.61-.434.243-.89.444-1.361.6-1.013.333-2.167.312-3.328.34a5.09 5.09 0 0 0-.215 1.115c-.071.693-.08 1.525.535 1.94.617.413 1.54.554 3.2-.528.467-.349 1.274-1.277 1.663-1.259a.359.359 0 0 1 .34.2.79.79 0 0 1 .151.463c0 .338-.22.522-.433.772-.891.809-2.107 1.343-3.89 1.368-1.052.015-1.902-.255-2.548-.808-.723-.623-1.07-1.482-1.041-2.578Zm6.258-6.019c-.751.01-1.883 1.055-2.566 1.982-.576.796-1.02 1.924-1.364 3.012 1.385.023 2.45.162 3.832-.921.796-.698.877-1.856.867-2.486.042-.696-.274-1.587-.769-1.587ZM22.715 28.584c-.08-.116 1.405-3.486 1.736-4.462.455-1.337.614-2.486.611-3.12a.817.817 0 0 0-.357-.66l-.396-.06a.286.286 0 0 1-.097-.235.463.463 0 0 1 .126-.323c.096-.108.21-.198.339-.265.277-.145.584-.222.896-.225.244-.01.488.021.721.093.162.056.312.143.443.255a.993.993 0 0 1 .393.724c.005.26-.025.521-.087.774a8.236 8.236 0 0 1-.225.77c-.086.25-.174.484-.261.719-.066.163-.122.33-.169.5-.054.224-.51 1.208-.51 1.208s1.015-1.341 1.274-1.755c.26-.414 1.737-2.471 2.361-2.827.319-.19 1.274-.737 1.763-.149.2.199.318.466.333.749.015.229-.005.459-.058.682-.05.18-.126.354-.226.512-.221.359-.492.538-.809.54a.398.398 0 0 1-.245-.086l-.223-.18a1.025 1.025 0 0 0-.646-.274c-.769-.22-1.41.43-1.965 1.141-.554.711-1.433 1.455-2.397 4.708l-.338 1.118c-.282.615-1.905.246-1.987.128ZM31.121 27.02c-.004-.19.044-.377.139-.54.09-.162.21-.304.353-.42.262-.233.594-.366.941-.377.287 0 .432.121.435.377 0 .646.353 1.54.852 1.789.18.09.703.394 1.198.297.496-.097 1.1-.373 1.245-.911.23-.85-1.071-1.975-1.273-2.203l-.621-.739c-.873-.986-1.471-1.624-1.482-2.465-.01-.698.322-1.334.996-1.91.764-.646 1.752-.98 2.963-1.002 1.059-.015 1.622.162 2.229.614.492.36.788 1.657-.025 2.38-.414.364-.626.426-1.013.363a.62.62 0 0 1-.401-.225.407.407 0 0 1-.06-.413c.057-.162.692-1.15.303-1.654-.388-.504-.566-.62-1.084-.692a2.016 2.016 0 0 0-1.463.429c-1.01 1.154-.138 2.15 0 2.385.157.234.334.454.529.658.192.234.4.47.627.711.224.238.432.492.622.758.459.623.691 1.172.698 1.649a2.01 2.01 0 0 1-.328 1.2c-.237.335-.536.62-.88.84a4.734 4.734 0 0 1-2.612.791c-.925.012-1.658-.172-2.198-.55-.457-.318-.683-.698-.69-1.14Z"/>
                <path fill="#fff" d="M41.696 28.865c-.288-1.892 1.616-8.58 1.91-9.723l-1.91 9.723Z"/>
                <path fill="" d="M41.673 28.87a.965.965 0 0 1-.554-.268.991.991 0 0 1-.285-.553c-.159-.485-.027-1.015.032-1.504.144-.946.35-1.88.617-2.798.227-.808.49-1.605.753-2.398.25-.69.498-1.41.934-2.005a.815.815 0 0 1 .457-.197.797.797 0 0 1 .275.723c-.031 1.454-.363 2.888-.477 4.336a40.157 40.157 0 0 1-.33 2.699c-.022.287-.08.57-.17.842a2.059 2.059 0 0 1-.328.519c-.237.309-.425.357-.882.596h-.045l.003.008ZM8.357 22.645c-1.976.666-3.9 1.647-5.354 3.184a5.196 5.196 0 0 0-1.411 2.2c-.478 1.413.52 1.813 1.751 1.635 1.91-.296 3.455-1.668 4.552-3.21.887-1.253 1.533-2.617 2.189-4.005 1.318-2.767 2.547-5.571 3.595-8.458l.796-2.16c.221-.535.347-1.114.68-1.596a.816.816 0 0 1 .606-.39 19.317 19.317 0 0 1-1.06 2.988c-1.258 2.946-2.907 6.007-6.252 6.885-.81.205-1.77.221-2.547-.23-1.42-.84-1.457-2.775-1.072-4.194.335-1.343 1.003-2.565 1.724-3.717l.42-.66c.171-.274.318-.556.585-.743.103-.084.217-.152.34-.204l.13-.035a.232.232 0 0 0 .159-.094.17.17 0 0 1 .124.021.606.606 0 0 1 .285.519c.032.467-.194.834-.388 1.225-.244.485-.49.94-.736 1.396-.374.716-.796 1.439-1.1 2.184-.55 1.293-1.274 3.463.532 4.03 1.468.39 3.025-.386 4.161-1.315a9.394 9.394 0 0 0 1.98-2.377 29.444 29.444 0 0 0 2.45-4.933c.097-.244.18-.494.246-.748l.027.008c.092.075.178.16.255.25.283.3.248.773.134 1.132-.354 1.108-.637 2.233-.987 3.35a55.811 55.811 0 0 1-2.548 6.562c-.646 1.335-1.299 2.652-2.14 3.879a14.471 14.471 0 0 1-3.696 3.66 7.089 7.089 0 0 1-3.106 1.238c-.748.133-1.515.1-2.248-.097a2.044 2.044 0 0 1-.796-.381c-1.05-.832-.637-2.434.126-3.232a8.612 8.612 0 0 1 1.006-.917l.138-.11a.837.837 0 0 1 .137-.095 15.435 15.435 0 0 1 2.957-1.455c1.1-.371 2.278-.646 3.36-.987l-.004-.003Z"/>
                <path fill="#B52323" d="M57.763 9.458c-.28-1.264-1.425-1.678-2.657-1.689-.785-.394-1.844-.09-2.646.13-.919.252-2.923 1.654-2.982 1.798-.634.294-1.236.654-1.798 1.073a3.058 3.058 0 0 0-.851.996 29.418 29.418 0 0 0-.403-.35c.043-.085.087-.17.127-.258.446-.945.459-1.881.43-2.909-.025-.955-.017-1.875-.384-2.775a11.153 11.153 0 0 0-1.372-2.466 4.822 4.822 0 0 0-2.281-1.68 3.177 3.177 0 0 0-.777-.656A2.79 2.79 0 0 0 39.8.432a.98.98 0 0 0-.415.28 2.854 2.854 0 0 0-1.424.339c-.7.41-1.24 1.226-1.592 1.952a4.275 4.275 0 0 0-.34 2.424c-.28.677.075 1.358.444 1.985.111-.02 1.146 1.574 2.635 2.575 1.176.733 3.184 1.496 3.184 1.496l.151.19s.395-.124.014-.172c-.886-.112-1.956-.267-2.78-.228-.088.02-.176.044-.262.071-.672-.022-1.355-.121-1.957.225-.665.383-1.273 1.207-1.603 1.894-.364.77-.223 1.548.072 2.316.307.795.91 1.154 1.751 1.131.497-.02.99-.096 1.471-.224.554.106 1.183-.14 1.734-.46a.751.751 0 0 0 .307-.043c.973-.359 2.2-1.159 2.89-2.167.275-.168.538-.357.786-.564.177-.154.373.323.532.143.263.206.637.877.713 1.146.287 1.088 1.232 2.118 2.094 2.85.303.156.616.292.936.407.436.183.922.203 1.37.055a1.37 1.37 0 0 0 .621-.485 1.014 1.014 0 0 0 .714-.67c.17-.416.22-.872.143-1.314-.29-.1-.637-.71-1.094-1.085a3.643 3.643 0 0 0-1.114-.61l-.553-.09c.186.045.376.067.567.066.327.018 1.376.191 2.473.1 1.339-.108 2.735-.484 2.802-.371 1.571-.74 3.114-2.229 2.692-4.136Z"/>
                <path fill="#1A1A1A" d="M42.525 11.491c-3.343-.842-7.462-3.502-6.728-7.522.343-1.487 1.186-2.95 2.624-3.581 2.181-.95 4.71-.042 6.368 1.526 1.944 1.803 3.046 4.625 2.654 7.282-.374 1.841-1.218 3.537-2.237 5.083.366-.633.677-1.297.928-1.985a9.078 9.078 0 0 0 .593-3.174c.025-1.05.035-2.122-.263-3.135-.877-3.249-4.421-6.177-7.801-5-2.117.718-3.036 3.044-2.484 5.16.74 2.806 3.767 4.558 6.351 5.346h-.005Z"/>
                <path fill="#1A1A1A" d="M42.629 11.517c-.879-.08-1.752-.218-2.63-.134-.7.097-1.377.32-2 .658a3.957 3.957 0 0 0-1.637 1.268c-.636.957-.582 2.25.438 2.9.857.564 2.033.554 3.025.323 1.592-.376 2.92-1.443 4.152-2.484 1.529-1.254 2.602-2.937 3.753-4.525l.036-.055-.01.02a.492.492 0 0 0-.036.293c-.022.162.319.522.5.46a.462.462 0 0 0 .23-.04.407.407 0 0 0 .095-.053l-.035.033-.064.06c-.022.024-.05.04-.12.015a1.112 1.112 0 0 1-.405-.255c-.228-.27-.24-.333-.261-.407-.034-.126.047-.14.11-.215a1.07 1.07 0 0 1 .203-.162.516.516 0 0 1 .306-.074c.188-.063.53.309.51.467a.578.578 0 0 1-.069.375 3.568 3.568 0 0 1-.24.359 23.57 23.57 0 0 1-4.251 4.029c-1.8 1.293-3.729 2.545-5.996 2.7a4.03 4.03 0 0 1-1.74-.234c-2.08-.793-2.22-3.748-.497-4.974a5.683 5.683 0 0 1 3.355-1.083c1.202-.02 2.229.436 3.278.735ZM48.468 10.436c1.798-1.708 4.909-3.658 7.365-2.879.884.2 1.77.808 2.054 1.728.796 2.956-2.805 4.766-5.24 4.75a18.752 18.752 0 0 1-3.445-.221c1.142.091 2.29.091 3.431 0 1.654-.115 3.378-.773 4.423-2.117.657-.843.804-2.145.062-2.97a2.677 2.677 0 0 0-1.396-.769c-2.293-.746-5.413 1.146-7.25 2.478h-.004Z"/>
                <path fill="#1A1A1A" d="M49.681 13.85c1.179.355 2.422 1.13 2.548 2.487.102 1.105-.849 1.897-1.853 2.043-2.357.34-4.073-2.467-4.61-4.461h.028c.146.423.327.832.541 1.225.603 1.14 1.524 2.233 2.765 2.628 1.046.338 2.685-.086 2.693-1.411-.03-1.195-1.151-1.995-2.116-2.505l.005-.007Z"/>
                <path fill="#1A1A1A" d="M49.151 7.85c.45.407.468.629.438.818-.022.388-.3.67-.477.99a34.129 34.129 0 0 1-3.06 4.516c-.406.44-.78.926-1.452.91l-.016-.014c-.056-.526.135-.809.296-1.132.543-.924 1.086-1.778 1.517-2.772.347-.75.75-1.647 1.107-2.382.159-.323.254-.66.584-.866a.64.64 0 0 1 .318-.134 1.884 1.884 0 0 1 .75.065h-.005Z"/>
            </symbol>
            <symbol id="icon-colombia-flag-round-circle-icon" viewBox="0 -5 55 40">
                <path fill="#fff" style="fill: var(--color2, #fff)" d="M16 1.225c4.080 0 7.774 1.654 10.448 4.328s4.328 6.368 4.328 10.448-1.654 7.774-4.328 10.448c-2.674 2.674-6.368 4.328-10.448 4.328s-7.774-1.654-10.448-4.328c-2.674-2.674-4.328-6.368-4.328-10.448s1.654-7.774 4.327-10.448c2.674-2.674 6.368-4.327 10.448-4.327z"></path>
                <path fill="#ce1126" style="fill: var(--color3, #ce1126)" d="M27.687 22.812c-2.346 4.016-6.701 6.714-11.687 6.714s-9.341-2.698-11.687-6.714h23.373z"></path>
                <path fill="#003893" style="fill: var(--color4, #003893)" d="M27.687 22.812h-23.373c-1.168-2-1.839-4.328-1.839-6.812l27.051-0c0 2.4-0.628 4.739-1.839 6.812z"></path>
                <path fill="#fcd116" style="fill: var(--color5, #fcd116)" d="M29.525 16h-27.051c0-7.47 6.056-13.525 13.525-13.525s13.525 6.055 13.525 13.525z"></path>
            </symbol>   
    </defs>
</svg>